<?xml version="1.0" standalone="no"?>
<!DOCTYPE svg PUBLIC "-//W3C//DTD SVG 20010904//EN"
 "http://www.w3.org/TR/2001/REC-SVG-20010904/DTD/svg10.dtd">
<svg version="1.0" xmlns="http://www.w3.org/2000/svg"
 width="500.000000pt" height="500.000000pt" viewBox="0 0 500.000000 500.000000"
 preserveAspectRatio="xMidYMid meet">

<g transform="translate(0.000000,500.000000) scale(0.100000,-0.100000)"
fill="#000000" stroke="none">
<path d="M2370 4414 c-19 -8 -42 -24 -51 -36 -16 -20 -16 -20 -22 11 -4 20
-13 31 -23 31 -15 0 -16 -15 -10 -162 11 -263 15 -298 38 -298 19 0 20 5 13
98 l-7 97 28 -27 c57 -53 163 -46 222 15 58 60 55 183 -6 239 -50 47 -119 59
-182 32z m145 -57 c87 -87 37 -227 -80 -227 -121 0 -177 156 -84 234 24 20 41
26 81 26 43 0 54 -4 83 -33z"/>
<path d="M2730 4377 c-52 -34 -75 -82 -75 -152 0 -46 5 -67 23 -92 28 -40 96
-73 151 -73 52 0 103 24 95 45 -7 18 -16 19 -31 4 -16 -16 -96 -13 -132 5 -37
19 -58 50 -67 95 -7 32 -6 33 22 27 16 -3 72 -13 124 -21 52 -9 102 -18 111
-21 38 -11 26 111 -14 154 -53 57 -147 70 -207 29z m145 -27 c45 -17 89 -120
51 -120 -15 0 -220 41 -224 45 -1 1 3 15 10 30 15 32 82 68 115 60 12 -3 34
-10 48 -15z"/>
<path d="M1622 4371 c-11 -7 -3 -31 38 -117 28 -60 72 -155 98 -211 43 -96 65
-122 78 -90 2 7 -22 69 -54 138 -32 68 -76 161 -97 207 -21 45 -41 82 -44 82
-3 0 -12 -4 -19 -9z"/>
<path d="M1945 4346 c-17 -7 -45 -30 -64 -51 -32 -36 -33 -41 -29 -104 6 -108
64 -166 168 -164 81 1 138 45 162 124 20 70 -24 168 -88 195 -42 17 -109 17
-149 0z m133 -36 c33 -21 71 -87 72 -125 0 -34 -35 -88 -71 -107 -97 -52 -199
24 -186 140 10 91 107 139 185 92z"/>
<path d="M3091 4271 c-10 -31 -34 -94 -51 -141 -45 -119 -44 -117 -22 -122 16
-5 24 8 52 84 19 50 42 101 52 113 25 31 78 48 111 36 25 -10 37 0 37 30 0 12
-107 12 -115 -1 -12 -19 -26 -11 -15 9 15 28 13 38 -9 44 -17 4 -23 -5 -40
-52z"/>
<path d="M1435 4107 c-86 -49 -108 -152 -49 -236 31 -43 93 -81 135 -81 42 0
128 49 154 88 31 45 32 72 5 72 -13 0 -20 -7 -20 -18 0 -27 -57 -81 -99 -92
-50 -13 -131 11 -131 40 0 3 52 42 115 85 129 87 131 93 51 140 -54 31 -108
32 -161 2z m118 -20 c68 -29 65 -38 -40 -108 -53 -35 -100 -65 -104 -67 -3 -2
-10 13 -13 33 -15 78 33 141 117 154 4 0 22 -5 40 -12z"/>
<path d="M3764 3946 c-45 -45 -43 -68 8 -169 24 -45 46 -93 50 -106 7 -24 -5
-60 -26 -73 -21 -14 -78 -8 -106 12 -37 27 -90 110 -90 143 0 28 -6 32 -29 18
-32 -21 29 -139 99 -190 23 -16 54 -32 70 -36 42 -9 92 16 115 59 19 35 19 37
1 89 -10 28 -29 70 -43 91 -34 52 -41 110 -18 136 45 50 141 4 185 -89 15 -31
29 -47 37 -44 30 12 9 66 -51 131 -41 45 -76 62 -127 62 -33 0 -47 -6 -75 -34z"/>
<path d="M1233 3963 c-23 -8 -24 -4 79 -256 11 -27 17 -51 15 -53 -4 -4 -139
45 -241 87 -44 19 -50 19 -64 5 -9 -9 -14 -17 -11 -19 2 -2 45 -18 94 -36 50
-18 123 -46 164 -62 70 -27 75 -28 93 -12 11 10 16 23 12 32 -10 24 -60 151
-93 237 -34 86 -32 83 -48 77z"/>
<path d="M3343 3903 c-7 -2 -13 -15 -13 -28 0 -25 15 -34 43 -27 22 6 23 48 1
56 -9 3 -16 6 -17 5 -1 0 -8 -3 -14 -6z"/>
<path d="M938 3600 c-65 -35 -100 -118 -79 -183 43 -129 201 -170 287 -75 34
37 54 84 54 128 0 32 -4 40 -18 40 -15 0 -19 -8 -20 -45 -1 -84 -76 -146 -158
-131 -19 4 -34 9 -34 11 0 2 34 56 75 121 75 117 75 117 53 132 -35 25 -117
26 -160 2z m125 -29 c5 -5 1 -21 -11 -38 -11 -15 -39 -58 -63 -95 -24 -38 -46
-68 -50 -68 -15 0 -39 39 -44 75 -8 52 18 102 65 127 35 19 84 18 103 -1z"/>
<path d="M3954 3591 c-53 -13 -101 -58 -119 -111 -34 -101 30 -205 137 -225
53 -10 137 30 168 79 19 31 22 47 18 102 -4 59 -7 67 -43 104 -22 22 -55 45
-75 50 -39 11 -42 11 -86 1z m107 -52 c14 -6 36 -28 49 -51 39 -69 13 -140
-66 -179 -71 -34 -133 -10 -173 68 -30 59 8 136 82 165 42 17 57 16 108 -3z"/>
<path d="M705 3287 c-83 -33 -112 -71 -161 -219 -27 -79 -31 -103 -22 -110 12
-7 383 -129 402 -132 15 -2 76 205 76 259 0 59 -26 119 -66 157 -55 51 -160
72 -229 45z m177 -63 c82 -58 100 -134 59 -255 -34 -102 -18 -99 -203 -39 -89
29 -166 56 -170 59 -12 10 39 160 67 197 61 79 166 96 247 38z"/>
<path d="M4220 3289 c0 -6 5 -19 10 -30 9 -16 7 -21 -12 -29 -13 -5 -54 -22
-93 -38 -38 -16 -91 -37 -116 -46 -38 -14 -46 -21 -42 -36 6 -22 33 -20 85 7
15 7 63 27 105 44 43 17 83 33 89 35 7 3 19 -16 29 -44 12 -33 23 -48 32 -45
17 7 16 25 -4 68 -9 19 -14 37 -11 41 4 3 25 8 47 11 49 7 71 -8 71 -47 0 -23
15 -40 36 -40 12 0 1 59 -16 88 -30 48 -62 60 -115 41 -42 -16 -43 -15 -54 8
-11 23 -41 32 -41 12z"/>
<path d="M4305 3057 l7 -33 -122 -33 c-130 -36 -150 -50 -150 -106 0 -16 9
-45 20 -63 17 -28 23 -32 35 -22 13 11 13 15 0 33 -20 29 -19 60 4 81 14 13
191 66 222 66 8 0 12 -11 23 -62 4 -16 13 -28 22 -28 13 0 15 7 9 38 -12 62
-11 65 23 74 24 7 32 13 28 24 -3 9 -6 17 -6 19 0 1 -16 -1 -35 -5 -34 -8 -36
-7 -42 21 -4 20 -12 29 -25 29 -16 0 -18 -5 -13 -33z"/>
<path d="M4243 2749 c-135 -54 -153 -64 -153 -84 0 -20 12 -27 88 -54 186 -67
194 -72 155 -84 -10 -3 -67 -26 -128 -50 -94 -39 -110 -49 -110 -68 0 -21 17
-29 164 -81 90 -32 166 -56 169 -54 12 13 -10 34 -50 48 -23 9 -85 31 -135 49
-51 18 -93 36 -93 39 0 3 61 29 135 59 176 70 176 76 10 137 -66 24 -125 44
-132 44 -6 0 -14 4 -17 9 -3 5 55 33 129 62 103 41 135 57 135 71 0 10 -3 18
-7 18 -5 -1 -77 -28 -160 -61z"/>
<path d="M807 2561 l-94 -79 -71 71 c-60 60 -72 68 -72 50 0 -21 18 -44 143
-178 l47 -50 -160 -9 c-151 -8 -160 -10 -160 -29 0 -19 4 -20 122 -14 66 4
172 7 235 7 106 0 113 1 113 20 0 17 -7 20 -42 20 -36 0 -48 6 -84 41 l-43 42
85 70 c62 51 84 76 84 93 0 13 -2 24 -5 24 -3 0 -47 -36 -98 -79z"/>
<path d="M850 2251 c0 -10 11 -26 25 -35 35 -23 51 -85 36 -135 -33 -110 -203
-121 -247 -16 -18 44 -18 69 1 104 12 25 12 31 1 40 -22 19 -46 -24 -46 -83 0
-68 34 -132 82 -157 74 -38 174 -18 219 44 54 74 47 161 -16 224 -37 37 -55
42 -55 14z"/>
<path d="M4092 2234 c-47 -32 -65 -123 -37 -178 15 -28 14 -28 -9 -22 -18 4
-25 1 -29 -13 -4 -15 6 -21 54 -35 102 -28 196 -41 226 -30 36 12 70 65 79
120 8 54 -5 108 -28 112 -13 3 -15 -7 -11 -65 5 -64 3 -71 -22 -101 -22 -26
-34 -32 -66 -32 -46 0 -47 7 -24 105 16 67 12 100 -18 133 -25 26 -81 30 -115
6z m106 -56 c10 -22 9 -38 -5 -97 -10 -41 -22 -71 -29 -71 -63 0 -104 66 -84
135 17 56 28 66 69 63 27 -2 39 -9 49 -30z"/>
<path d="M960 1925 c-14 -8 -61 -31 -104 -52 -119 -57 -139 -102 -89 -201 32
-63 76 -100 98 -82 12 10 8 17 -21 42 -67 59 -82 121 -39 163 37 38 53 32 82
-32 36 -82 68 -113 114 -113 22 0 47 8 63 21 55 43 24 162 -52 200 -32 16 -32
17 -10 31 12 8 18 19 14 26 -9 16 -25 15 -56 -3z m48 -81 c28 -20 55 -82 47
-111 -7 -29 -48 -56 -72 -49 -22 7 -68 75 -84 124 -9 28 -9 36 2 43 22 14 83
10 107 -7z"/>
<path d="M3967 1899 c-4 -16 3 -23 36 -36 157 -63 215 -118 190 -183 -10 -26
-9 -32 7 -40 13 -7 20 -6 24 6 9 24 7 70 -4 99 -9 24 -8 26 7 20 30 -12 47
-11 50 5 2 11 -34 32 -124 72 -181 81 -180 81 -186 57z"/>
<path d="M3885 1672 c-23 -11 -53 -33 -68 -51 -45 -53 -59 -151 -23 -151 8 0
15 17 18 45 6 53 44 107 87 125 30 12 95 7 105 -8 2 -4 -32 -60 -75 -125 l-80
-118 47 -20 c31 -14 58 -19 81 -16 80 13 143 85 143 164 0 115 -133 202 -235
155z m192 -121 c18 -42 10 -79 -26 -119 -33 -35 -83 -48 -125 -32 -27 10 -28
11 -12 33 9 12 25 36 36 52 10 17 34 51 52 77 37 52 50 50 75 -11z"/>
<path d="M1116 1651 c-3 -4 6 -19 19 -31 41 -39 33 -71 -27 -117 -100 -74
-127 -93 -134 -93 -4 0 -21 16 -38 35 -44 50 -64 33 -26 -21 l28 -42 -30 -22
c-23 -17 -27 -24 -17 -36 10 -12 16 -11 41 4 29 17 30 16 49 -7 16 -19 22 -21
34 -11 14 12 13 15 -5 35 l-20 22 71 49 c102 71 136 101 143 129 13 51 -65
144 -88 106z"/>
<path d="M1205 1424 c-14 -15 -25 -35 -25 -46 0 -21 32 -87 61 -130 35 -48 20
-98 -29 -98 -31 0 -112 79 -112 109 0 23 -7 26 -28 12 -27 -17 41 -116 100
-147 40 -21 76 -17 103 11 37 36 33 78 -15 155 -22 36 -40 72 -40 81 0 23 21
39 53 39 35 0 91 -54 116 -112 12 -28 20 -35 30 -29 26 17 -14 96 -71 142 -62
49 -106 53 -143 13z"/>
<path d="M3481 1250 c-29 -14 -65 -20 -110 -20 -92 0 -144 -34 -166 -107 -5
-17 -2 -23 10 -23 8 0 19 10 24 23 19 49 88 86 133 71 18 -5 18 -7 4 -23 -42
-47 -58 -143 -34 -212 65 -188 335 -199 429 -17 23 45 26 143 5 191 -45 110
-187 166 -295 117z m178 -49 c86 -61 114 -159 70 -245 -32 -65 -85 -99 -163
-104 -55 -3 -66 -1 -107 27 -52 35 -89 104 -89 163 1 75 69 160 144 179 44 11
117 1 145 -20z"/>
<path d="M1423 1159 c-43 -55 -106 -136 -140 -179 -35 -43 -63 -83 -63 -88 0
-20 33 -22 46 -4 7 10 28 37 46 59 18 22 58 73 88 113 30 40 74 95 97 124 31
37 39 54 31 63 -6 7 -14 13 -18 13 -5 0 -44 -45 -87 -101z"/>
<path d="M1576 1092 c-27 -42 -73 -113 -101 -157 -96 -150 -99 -156 -84 -166
8 -5 16 -9 19 -9 3 0 32 43 65 95 33 52 88 138 123 192 34 53 61 102 59 108
-10 28 -36 8 -81 -63z"/>
<path d="M1716 1036 c-14 -33 -41 -99 -61 -146 -19 -47 -33 -91 -30 -97 10
-28 31 -10 55 49 45 110 64 142 98 161 42 25 95 16 134 -23 38 -38 36 -65 -13
-185 -38 -92 -39 -100 -23 -112 16 -11 21 -4 57 80 49 112 57 178 28 224 -33
52 -114 77 -175 53 -24 -9 -25 -8 -16 16 13 33 13 31 -9 37 -16 4 -24 -6 -45
-57z"/>
<path d="M3222 1077 c-6 -7 -12 -40 -14 -72 l-3 -60 -118 -44 -118 -44 -49 48
c-32 31 -54 46 -64 42 -9 -4 -16 -10 -16 -14 0 -5 76 -84 169 -177 134 -134
172 -167 188 -162 18 6 21 25 37 224 9 119 20 229 22 245 6 29 -14 38 -34 14z
m-27 -294 c-4 -65 -11 -122 -15 -127 -8 -8 -179 160 -180 176 0 3 14 9 31 13
16 4 56 17 87 30 89 37 85 42 77 -92z"/>
<path d="M2630 915 c-19 -23 -8 -50 20 -50 16 0 26 6 28 18 4 18 -14 47 -28
47 -4 0 -13 -7 -20 -15z"/>
<path d="M2317 913 c-2 -5 -10 -45 -17 -90 -16 -95 -4 -90 -142 -64 -98 18
-108 18 -108 -5 0 -17 18 -22 119 -35 49 -6 94 -15 101 -19 11 -7 9 -33 -16
-147 -6 -29 -31 -29 -166 -4 -95 17 -98 17 -98 -1 0 -10 2 -18 4 -18 2 0 63
-11 136 -25 73 -14 138 -25 145 -25 7 0 15 17 18 38 3 20 19 118 36 217 17 99
31 181 31 182 0 7 -39 2 -43 -4z"/>
</g>
</svg>
